<?xml version="1.0" encoding="UTF-8"?><svg id="a" xmlns="http://www.w3.org/2000/svg" viewBox="0 0 1000.25 1000.25"><defs><style>.b{stroke-width:3px;}.b,.c{stroke:#5f930f;stroke-linecap:round;}.b,.c,.d,.e{stroke-linejoin:round;}.b,.c,.d,.e,.f{fill:none;}.g{font-size:23px;}.g,.h,.i{font-family:Arial-BoldMT, Arial;font-weight:700;}.j{fill:#404040;}.k{font-size:25px;}.k,.l{font-family:ArialMT, Arial;}.c,.e{stroke-width:5px;}.d{stroke:#404040;}.d,.e{stroke-linecap:square;}.h{fill:#1d2088;font-size:30px;}.m{letter-spacing:-.06em;}.e{stroke:#f91a88;}.l{font-size:38px;}.f{stroke:rgba(192,187,183,0);stroke-miterlimit:10;stroke-width:.25px;}.i{font-size:34px;}</style></defs><g><text class="i" transform="translate(19.14 853.93)"><tspan x="0" y="0">2400MHz</tspan></text><text class="i" transform="translate(810.59 854.32)"><tspan x="0" y="0">2483.5MHz</tspan></text></g><g><text class="g" transform="translate(44.99 809.13)"><tspan x="0" y="0">2405</tspan></text><text class="g" transform="translate(101.64 809.13)"><tspan x="0" y="0">2410</tspan></text><text class="g" transform="translate(159.79 809.13)"><tspan x="0" y="0">2415</tspan></text><text class="g" transform="translate(218.45 809.13)"><tspan x="0" y="0">2420</tspan></text><text class="g" transform="translate(277.12 809.13)"><tspan x="0" y="0">2425</tspan></text><text class="g" transform="translate(335.78 809.13)"><tspan x="0" y="0">2430</tspan></text><text class="g" transform="translate(394.46 809.13)"><tspan x="0" y="0">2435</tspan></text><text class="g" transform="translate(453.11 809.13)"><tspan x="0" y="0">2440</tspan></text><text class="g" transform="translate(511.79 809.13)"><tspan x="0" y="0">2445</tspan></text><text class="g" transform="translate(570.45 809.13)"><tspan x="0" y="0">2450</tspan></text><text class="g" transform="translate(629.12 809.13)"><tspan x="0" y="0">2455</tspan></text><text class="g" transform="translate(687.78 809.13)"><tspan x="0" y="0">2460</tspan></text><text class="g" transform="translate(746.46 809.13)"><tspan x="0" y="0">2465</tspan></text><text class="g" transform="translate(805.11 809.13)"><tspan x="0" y="0">2470</tspan></text><text class="g" transform="translate(863.79 809.13)"><tspan x="0" y="0">2475</tspan></text><text class="g" transform="translate(925.45 809.13)"><tspan x="0" y="0">2480</tspan></text></g><g><text class="h" transform="translate(33.5 766.78)"><tspan x="0" y="0">CH</tspan><tspan class="m" x="43.33" y="0">1</tspan><tspan x="58.36" y="0">1</tspan></text><text class="h" transform="translate(113.22 766.78)"><tspan x="0" y="0">12</tspan></text><text class="h" transform="translate(171.91 766.78)"><tspan x="0" y="0">13</tspan></text><text class="h" transform="translate(230.6 766.78)"><tspan x="0" y="0">14</tspan></text><text class="h" transform="translate(289.29 766.78)"><tspan x="0" y="0">15</tspan></text><text class="h" transform="translate(347.98 766.78)"><tspan x="0" y="0">16</tspan></text><text class="h" transform="translate(406.67 766.78)"><tspan x="0" y="0">17</tspan></text><text class="h" transform="translate(465.35 766.78)"><tspan x="0" y="0">18</tspan></text><text class="h" transform="translate(524.04 766.78)"><tspan x="0" y="0">19</tspan></text><text class="h" transform="translate(582.73 766.78)"><tspan x="0" y="0">20</tspan></text><text class="h" transform="translate(641.42 766.78)"><tspan x="0" y="0">21</tspan></text><text class="h" transform="translate(700.11 766.78)"><tspan x="0" y="0">22</tspan></text><text class="h" transform="translate(758.8 766.78)"><tspan x="0" y="0">23</tspan></text><text class="h" transform="translate(817.49 766.78)"><tspan x="0" y="0">24</tspan></text><text class="h" transform="translate(876.17 766.78)"><tspan x="0" y="0">25</tspan></text><text class="h" transform="translate(934.86 766.78)"><tspan x="0" y="0">26</tspan></text></g><g><line class="c" x1="20.14" y1="724.13" x2="983.82" y2="724.13"/><line class="c" x1="20.14" y1="283.85" x2="20.14" y2="787.42"/><line class="c" x1="984.14" y1="283.85" x2="984.14" y2="787.42"/><g><line class="b" x1="951.79" y1="714.22" x2="951.79" y2="733.53"/><line class="b" x1="893.12" y1="714.22" x2="893.12" y2="733.53"/><line class="b" x1="834.45" y1="714.22" x2="834.45" y2="733.53"/><line class="b" x1="775.79" y1="714.22" x2="775.79" y2="733.53"/><line class="b" x1="717.12" y1="714.22" x2="717.12" y2="733.53"/><line class="b" x1="658.45" y1="714.22" x2="658.45" y2="733.53"/><line class="b" x1="599.79" y1="714.22" x2="599.79" y2="733.53"/><line class="b" x1="541.12" y1="714.22" x2="541.12" y2="733.53"/><line class="b" x1="482.45" y1="714.22" x2="482.45" y2="733.53"/><line class="b" x1="423.79" y1="714.22" x2="423.79" y2="733.53"/><line class="b" x1="365.12" y1="714.22" x2="365.12" y2="733.53"/><line class="b" x1="306.45" y1="714.22" x2="306.45" y2="733.53"/><line class="b" x1="247.79" y1="714.22" x2="247.79" y2="733.53"/><line class="b" x1="189.12" y1="714.22" x2="189.12" y2="733.53"/><line class="b" x1="130.45" y1="714.22" x2="130.45" y2="733.53"/><line class="b" x1="71.79" y1="714.22" x2="71.79" y2="733.53"/></g></g><g><path class="e" d="m881.85,724.13s-1-331.68,11.2-331.68c10.58,0,11.36,331.68,11.36,331.68"/><path class="e" d="m823.19,724.13s-1-331.68,11.2-331.68c10.58,0,11.36,331.68,11.36,331.68"/><path class="e" d="m764.52,724.13s-1-331.68,11.2-331.68c10.58,0,11.36,331.68,11.36,331.68"/><path class="e" d="m705.85,724.13s-1-331.68,11.2-331.68c10.58,0,11.36,331.68,11.36,331.68"/><path class="e" d="m647.19,724.13s-1-331.68,11.2-331.68c10.58,0,11.36,331.68,11.36,331.68"/><path class="e" d="m588.52,724.13s-1-331.68,11.2-331.68c10.58,0,11.36,331.68,11.36,331.68"/><path class="e" d="m529.85,724.13s-1-331.68,11.2-331.68c10.58,0,11.36,331.68,11.36,331.68"/><path class="e" d="m471.19,724.13s-1-331.68,11.2-331.68c10.58,0,11.36,331.68,11.36,331.68"/><path class="e" d="m412.52,724.13s-1-331.68,11.2-331.68c10.58,0,11.36,331.68,11.36,331.68"/><path class="e" d="m353.85,724.13s-1-331.68,11.2-331.68c10.58,0,11.36,331.68,11.36,331.68"/><path class="e" d="m295.19,724.13s-1-331.68,11.2-331.68c10.58,0,11.36,331.68,11.36,331.68"/><path class="e" d="m236.52,724.13s-1-331.68,11.2-331.68c10.58,0,11.36,331.68,11.36,331.68"/><path class="e" d="m177.85,724.13s-1-331.68,11.2-331.68c10.58,0,11.36,331.68,11.36,331.68"/><path class="e" d="m60.52,724.13s-1-331.68,11.2-331.68c10.58,0,11.36,331.68,11.36,331.68"/><path class="e" d="m940.52,724.13s-1-331.68,11.2-331.68c10.58,0,11.36,331.68,11.36,331.68"/><path class="e" d="m119.19,724.13s-1-331.68,11.2-331.68c10.58,0,11.36,331.68,11.36,331.68"/></g><g><line class="d" x1="56.4" y1="351.57" x2="56.4" y2="721.43"/><line class="d" x1="87.38" y1="351.57" x2="87.38" y2="721.43"/><g><line class="d" x1="64.67" y1="361.86" x2="80.13" y2="361.86"/><polygon class="j" points="66.13 366.85 57.5 361.86 66.13 356.88 66.13 366.85"/><polygon class="j" points="78.67 366.85 87.31 361.86 78.67 356.88 78.67 366.85"/></g><text class="k" transform="translate(39.21 337.58)"><tspan x="0" y="0">2MHz</tspan></text></g><g><line class="d" x1="130.5" y1="351.57" x2="130.5" y2="721.69"/><line class="d" x1="189.48" y1="351.57" x2="189.48" y2="721.43"/><g><line class="d" x1="137.77" y1="362.43" x2="181.94" y2="362.43"/><polygon class="j" points="139.23 367.42 130.6 362.43 139.23 357.44 139.23 367.42"/><polygon class="j" points="180.48 367.42 189.12 362.43 180.48 357.44 180.48 367.42"/></g><text class="k" transform="translate(128.6 337.58)"><tspan x="0" y="0">5MHz</tspan></text></g><text class="l" transform="translate(385.81 175.55)"><tspan x="0" y="0">IEEE802.15.4</tspan></text><rect class="f" x=".12" y=".12" width="1000" height="1000"/></svg>