<?xml version="1.0" encoding="UTF-8"?><svg id="a" xmlns="http://www.w3.org/2000/svg" viewBox="0 0 690 690"><defs><style>.c{fill:#d31176;}</style></defs><g id="b"><path class="c" d="m408.19,503.7h-.03l-29.1.23c-2.14.02-3.86,1.77-3.85,3.92.02,2.14,1.75,3.86,3.87,3.86h.03l29.1-.23c2.14-.02,3.86-1.77,3.85-3.92-.02-2.14-1.75-3.86-3.87-3.86Z"/><path class="c" d="m320.24,324.34c-1.77-1.21-4.18-.75-5.39,1.02l-17.24,25.37c-1.21,1.77-.75,4.19,1.02,5.4.67.46,1.43.68,2.18.68,1.24,0,2.46-.59,3.21-1.7l17.24-25.36c1.21-1.77.75-4.19-1.02-5.4Z"/><path class="c" d="m322.97,169.62c.44.16.88.23,1.32.23,1.58,0,3.07-.98,3.64-2.56l6-16.57c.73-2.02-.31-4.25-2.32-4.98-2.01-.73-4.24.31-4.97,2.33l-6,16.57c-.73,2.02.31,4.25,2.32,4.98Z"/><path class="c" d="m690,141.32v-46.32c0-52.47-42.53-95-95-95h-46.32c-16.04,29.77-47.5,50-83.68,50-36.19,0-67.64-20.23-83.68-50h-72.63c-16.04,29.77-47.5,50-83.68,50-36.18,0-67.64-20.23-83.68-50h-46.32C42.53,0,0,42.53,0,95v46.32c29.77,16.04,50,47.5,50,83.68S29.77,292.64,0,308.68v72.63c29.77,16.04,50,47.5,50,83.68,0,36.19-20.23,67.64-50,83.68v46.32c0,52.47,42.53,95,95,95h46.32c16.04-29.77,47.5-50,83.68-50,36.19,0,67.64,20.23,83.68,50h72.63c16.04-29.77,47.5-50,83.68-50,36.18,0,67.64,20.23,83.68,50h46.32c52.47,0,95-42.53,95-95v-46.32c-29.77-16.04-50-47.5-50-83.68,0-36.18,20.23-67.64,50-83.68v-72.63c-29.77-16.04-50-47.5-50-83.68,0-36.19,20.23-67.64,50-83.68Zm-221.17,71.02l-17.35,17.66c-6.58-6.28-13.06-11.96-21.11-18.52-1.66-1.35-4.1-1.1-5.45.57-1.35,1.67-1.1,4.11.56,5.47,7.85,6.39,14.16,11.92,20.56,18.03l-13.36,13.59c-6.05-5.77-12.05-11.02-19.51-17.1-1.66-1.35-4.1-1.1-5.45.57-1.35,1.67-1.1,4.11.57,5.47,7.26,5.91,13.09,11.01,18.96,16.6l-17.42,17.73c-18.35-17.14-38.46-31.82-59.86-43.91l42.89-72.34c27.45,15.62,52.96,34.47,75.97,56.19Zm-153.92-90.13c24.78,7.77,48.6,17.9,71.17,30.17l-25.94,43.74c-1.08-.54-2.1-1.01-3.1-1.47-1.25-.57-2.55-1.17-3.98-1.91-1.91-.98-4.24-.22-5.22,1.69-.98,1.91-.22,4.25,1.68,5.23,1.59.82,2.96,1.45,4.29,2.06.79.36,1.56.72,2.35,1.1l-13,21.93c-10.13-5.39-20.53-10.21-31.16-14.45l9.35-24.45c.77-2-.23-4.25-2.23-5.02-2-.77-4.24.23-5.01,2.24l-9.35,24.44c-10.67-3.95-21.56-7.31-32.62-10.08l19.26-81.8c7.88,1.96,15.72,4.14,23.49,6.58Zm-82.51-16.62c17.29,1.63,34.48,4.38,51.47,8.25l-19.26,81.8c-12.79-2.87-25.79-4.95-38.92-6.21l6.71-83.84Zm50.28,171.68l-32.57,77.68c-8.57-3.21-17.4-5.66-26.39-7.33l5.84-25.02c.49-2.09-.81-4.18-2.89-4.67-2.09-.49-4.17.81-4.66,2.9l-5.96,25.55c-8.79-1.18-17.69-1.61-26.62-1.27l-2.87-26.22c-.23-2.13-2.14-3.67-4.27-3.44-2.13.23-3.66,2.15-3.43,4.29l2.83,25.89c-8.5.76-16.99,2.21-25.39,4.43l-21.41-81.52c23.6-6.22,47.69-8.64,71.46-7.52l-1.87,27.25c-.15,2.14,1.47,4,3.6,4.14.09,0,.18,0,.27,0,2.02,0,3.72-1.57,3.86-3.62l1.87-27.29c23.53,1.87,46.66,7.21,68.59,15.76ZM135.25,108.25l4.14,28.96c.28,1.94,1.93,3.33,3.83,3.33.18,0,.37-.01.56-.04,2.12-.31,3.59-2.27,3.29-4.4l-4.14-28.93c12.42-1.62,24.88-2.65,37.36-3.1l.91,27.93c.07,2.1,1.79,3.76,3.87,3.76.04,0,.09,0,.13,0,2.14-.07,3.82-1.87,3.75-4.01l-.91-27.88c12.23-.21,24.45.15,36.64,1.06l-6.71,83.85c-14.95-1.06-30.06-1.07-45.22.01l-2.33-29.33c-.17-2.14-2.02-3.74-4.17-3.57-2.13.17-3.72,2.04-3.56,4.18l2.33,29.37c-15.77,1.52-31.57,4.21-47.28,8.13l-20.24-81.84c12.5-3.11,25.1-5.6,37.76-7.5Zm54.75,491.75c-55.23,0-100-44.77-100-100,0-55.23,44.77-100,100-100,55.23,0,100,44.77,100,100,0,55.23-44.77,100-100,100Zm67.3-242.16l32.55-77.64c31.86,13.62,60.94,34.14,84.69,60.77l-65.22,53.4c-14.84-15.83-32.62-28.16-52.01-36.54Zm75.77,69.89l22.46-11.64c1.9-.99,2.65-3.33,1.66-5.24-.98-1.91-3.32-2.65-5.22-1.67l-22.69,11.76c-4.23-7.14-9.05-13.98-14.45-20.4-.11-.13-.22-.25-.33-.37l65.11-53.31c16.19,19.42,29.02,41.21,38.24,64.37l-28.81,10.31c-2.02.72-3.07,2.94-2.35,4.97.57,1.59,2.06,2.58,3.65,2.58.43,0,.87-.07,1.3-.23l28.96-10.36c3.76,10.39,6.81,21.03,9.11,31.83l-82.99,13.62c-3.03-12.56-7.61-24.74-13.65-36.22Zm96.32,124.66v.08s-81.98-18.36-81.98-18.36c4.63-20.73,4.82-42.04.95-62.55l82.85-13.6c5.58,31,5.15,63.15-1.81,94.43Zm32.31-216.98c-8.5-13.69-18.14-26.8-28.9-39.18-5.58-6.42-11.38-12.57-17.38-18.45l59-60.05c7.54,7.4,14.8,15.1,21.75,23.12,7.42,8.53,14.4,17.34,20.98,26.38l-20.59,14.39c-1.17.71-1.99,1.85-2.25,3.15-.27,1.31.05,2.68.84,3.72l13.58,18.56-47.02,28.38Zm4.01,6.65l72.04-43.47c16.06,27.27,28.63,56.24,37.54,86.21l-24.53,7.47c-2.49-8.83-4.72-16.26-8.04-25.06-.76-2.01-2.99-3.02-4.99-2.26-2,.76-3.01,3-2.25,5.01,3.23,8.57,5.42,15.87,7.87,24.58l-17.99,5.48c-2.35-7.94-4.98-15.85-7.9-23.58-.76-2.01-3-3.02-5-2.26-2,.76-3.01,3-2.25,5.01,2.86,7.57,5.44,15.32,7.74,23.09l-23.07,7.03c-6.91-23.37-16.67-45.96-29.14-67.25Zm54.32,67.7c2.27,8.41,4.23,16.97,5.82,25.52.35,1.87,1.98,3.17,3.81,3.17.24,0,.47-.02.72-.07,2.1-.39,3.49-2.42,3.1-4.53-1.64-8.82-3.68-17.67-6.02-26.35l49.97-15.22c8.74,31.71,13.41,64.48,13.82,97.49l-25.19.18c-.17-9.73-.7-19.52-1.62-29.14-.21-2.14-2.11-3.7-4.23-3.49-2.13.21-3.69,2.11-3.48,4.24.9,9.4,1.42,18.96,1.59,28.45l-51.12.37c-.35-24.89-3.8-49.61-10.23-73.58l23.07-7.03Zm59.28,179.89h-.08l-23.61-6.09c2.19-8.93,4.07-18.05,5.57-27.13.35-2.12-1.08-4.12-3.19-4.47-2.11-.35-4.11,1.08-4.46,3.2-1.47,8.86-3.3,17.75-5.43,26.47l-50.25-12.97c5.97-23.29,9.04-46.95,9.32-70.5l24.25-.18c-.04,7.93-.35,15.92-.95,23.79-.16,2.14,1.44,4.01,3.57,4.17.1,0,.2.01.3.01,2.01,0,3.71-1.55,3.86-3.59.61-8.08.93-16.29.97-24.43l52.08-.38c-.24,30.76-4.17,61.69-11.96,92.12Z"/></g></svg>